<?xml version="1.0" standalone="no"?>
<!DOCTYPE svg PUBLIC "-//W3C//DTD SVG 20010904//EN"
 "http://www.w3.org/TR/2001/REC-SVG-20010904/DTD/svg10.dtd">
<svg version="1.0" xmlns="http://www.w3.org/2000/svg"
 width="368.000000pt" height="368.000000pt" viewBox="0 0 368.000000 368.000000"
 preserveAspectRatio="xMidYMid meet">
<metadata>
Created by potrace 1.14, written by Peter Selinger 2001-2017
</metadata>
<g transform="translate(0.000000,368.000000) scale(0.100000,-0.100000)"
fill="#000000" stroke="none">
<path d="M1721 3414 c-1 -7 -8 -15 -17 -18 -10 -4 -13 -2 -8 7 5 9 4 9 -7 0
-7 -7 -21 -13 -31 -13 -10 0 -18 -6 -18 -12 0 -9 -4 -8 -10 2 -7 12 -10 12
-10 1 0 -7 -6 -11 -14 -8 -8 3 -17 -2 -21 -11 -5 -14 -7 -14 -15 -2 -8 13 -10
13 -10 1 0 -8 -3 -12 -6 -8 -4 3 -19 0 -35 -8 -19 -10 -30 -12 -34 -4 -5 7
-13 5 -25 -6 -10 -9 -27 -17 -38 -18 -13 -1 -18 -6 -14 -16 3 -9 1 -12 -6 -7
-8 4 -12 0 -12 -11 0 -15 -2 -16 -10 -3 -8 13 -10 12 -10 -2 0 -10 -5 -18 -11
-18 -5 0 -7 -5 -3 -12 4 -7 3 -8 -5 -4 -6 4 -14 0 -17 -8 -3 -9 -10 -13 -15
-10 -8 5 -13 -9 -10 -28 0 -4 -6 -5 -14 -2 -10 4 -15 0 -15 -12 0 -16 -2 -17
-10 -4 -8 13 -10 12 -10 -2 0 -10 -5 -18 -11 -18 -5 0 -8 -4 -5 -8 3 -5 -13
-16 -35 -26 -21 -10 -37 -22 -34 -27 4 -5 1 -9 -5 -9 -6 0 -8 -4 -5 -10 3 -5
-1 -10 -10 -10 -9 0 -14 -4 -10 -9 3 -5 1 -12 -5 -16 -6 -4 -8 -11 -5 -16 4
-5 2 -9 -3 -9 -6 0 -8 -8 -5 -19 3 -10 0 -22 -6 -25 -6 -4 -11 -18 -11 -32 0
-13 -4 -24 -9 -24 -5 0 -8 -8 -6 -17 1 -10 -4 -29 -12 -42 -12 -18 -12 -22 -2
-15 11 6 12 5 2 -7 -10 -12 -10 -18 0 -29 9 -10 9 -11 0 -6 -9 5 -13 -1 -13
-18 0 -14 -5 -28 -10 -31 -8 -5 -7 -11 1 -21 9 -11 9 -14 -1 -14 -8 0 -11 -11
-8 -30 3 -17 0 -34 -5 -37 -6 -4 -7 -1 -2 7 5 8 4 11 -3 7 -5 -4 -8 -16 -5
-27 3 -13 -1 -22 -11 -26 -11 -4 -13 -10 -7 -18 11 -13 9 -65 -2 -83 -11 -17
5 -17 22 0 11 9 10 7 0 -10 -8 -13 -18 -23 -24 -23 -5 0 -4 -4 4 -9 8 -5 23
-8 33 -6 10 2 16 0 13 -6 -4 -5 -11 -7 -16 -4 -5 4 -12 -1 -15 -9 -3 -9 -11
-13 -18 -9 -6 3 -8 3 -4 -2 4 -4 3 -14 -3 -22 -6 -7 -10 -13 -8 -14 2 0 12 -2
22 -4 11 -2 22 -7 25 -11 4 -4 -1 -4 -10 -1 -20 7 -35 -9 -16 -16 9 -4 9 -6
-1 -6 -11 -1 -10 -5 5 -16 19 -15 19 -15 -1 -8 -11 3 -17 2 -12 -2 4 -5 -1
-17 -10 -28 -10 -11 -13 -17 -6 -14 6 4 14 3 18 -3 3 -5 1 -10 -6 -10 -9 0 -9
-3 0 -14 10 -11 8 -17 -6 -25 -10 -6 -13 -11 -7 -11 7 0 15 -7 18 -16 5 -14 4
-15 -8 -5 -13 11 -15 9 -11 -8 2 -12 -1 -21 -8 -22 -7 0 -3 -4 8 -9 14 -6 15
-9 5 -10 -10 -1 -9 -4 5 -10 17 -7 17 -9 3 -9 -10 -1 -18 -6 -18 -12 0 -5 -6
-7 -12 -3 -10 6 -10 4 0 -7 6 -7 12 -26 12 -42 0 -19 4 -26 13 -22 6 4 3 -1
-7 -9 -19 -16 -19 -16 1 -16 12 0 24 -4 27 -9 4 -5 -4 -7 -16 -5 -13 2 -17 1
-10 -2 10 -5 10 -9 0 -22 -10 -12 -10 -16 0 -19 6 -3 12 -11 12 -19 0 -9 -5
-12 -12 -8 -7 4 -8 3 -4 -4 4 -7 13 -12 21 -12 13 0 15 -24 2 -36 -4 -4 -7
-12 -7 -18 0 -6 5 -4 10 4 8 12 10 9 10 -13 0 -21 4 -27 17 -25 10 2 18 -3 18
-12 1 -8 7 -14 14 -12 7 1 10 -2 6 -8 -5 -8 -11 -8 -21 1 -7 6 -11 15 -8 20 3
5 -2 6 -11 3 -13 -5 -10 -11 15 -29 16 -12 26 -26 22 -31 -4 -4 2 -2 12 6 17
13 18 13 11 1 -6 -11 -4 -13 10 -7 14 5 15 3 7 -6 -15 -19 10 -41 29 -25 8 8
8 5 -1 -7 -12 -15 -12 -20 -2 -23 6 -3 10 -9 7 -13 -3 -5 4 -7 16 -5 16 3 18
1 10 -9 -8 -9 -5 -18 9 -34 11 -12 22 -31 23 -43 2 -13 12 -26 23 -30 18 -7
18 -8 -1 -9 -19 -1 -19 -2 1 -10 17 -7 20 -14 16 -36 -3 -17 -1 -25 6 -21 5 4
13 0 16 -9 3 -8 2 -12 -4 -9 -6 3 -10 2 -10 -3 0 -5 8 -12 19 -15 14 -3 17
-11 14 -30 -3 -13 0 -28 6 -31 5 -4 7 -14 4 -23 -4 -11 -3 -14 5 -9 7 4 12 2
12 -3 0 -6 -6 -11 -12 -12 -7 0 -4 -4 7 -9 11 -5 14 -9 8 -9 -7 -1 -13 -8 -13
-16 0 -8 6 -15 13 -15 9 0 9 -2 1 -8 -12 -7 -14 -72 -3 -72 4 0 9 -7 13 -15 4
-12 2 -13 -13 -6 -13 7 -18 6 -18 -4 0 -8 3 -14 6 -13 19 2 22 -4 11 -17 -7
-8 -9 -15 -5 -15 4 0 2 -6 -4 -13 -8 -10 -7 -14 4 -14 8 0 12 3 10 7 -2 4 2 7
10 7 13 0 13 -2 1 -16 -8 -9 -15 -19 -15 -23 -1 -5 -1 -9 -2 -10 0 -2 -2 -14
-5 -27 -3 -18 -1 -22 9 -15 7 5 6 2 -3 -6 -8 -8 -14 -25 -12 -38 2 -13 -3 -24
-12 -28 -9 -3 -13 -11 -9 -17 3 -6 1 -7 -6 -3 -6 4 -14 0 -17 -9 -6 -13 -8
-14 -15 -3 -7 11 -9 11 -9 -1 0 -8 -6 -11 -16 -7 -14 5 -15 4 -5 -8 9 -11 9
-16 0 -22 -7 -4 -9 -3 -6 3 4 6 -4 13 -18 15 -13 3 -24 2 -23 -1 2 -18 -3 -31
-13 -31 -5 0 -7 6 -4 13 4 6 -1 3 -10 -8 -17 -20 -17 -20 -11 2 6 18 4 20 -14
16 -11 -3 -20 -8 -20 -12 0 -4 -9 -7 -19 -7 -11 0 -19 3 -19 6 1 17 -4 20 -22
10 -15 -8 -20 -8 -20 2 0 9 -3 9 -10 -2 -9 -13 -11 -13 -20 0 -8 13 -11 13
-22 1 -11 -11 -11 -13 1 -6 9 5 12 4 7 -3 -3 -5 0 -12 6 -15 7 -3 3 -4 -9 -4
-12 1 -21 4 -21 7 2 18 -3 32 -9 27 -3 -4 -13 -1 -22 5 -10 8 -9 4 3 -10 11
-12 16 -25 13 -29 -4 -3 -7 -1 -7 5 0 7 -7 12 -15 12 -8 0 -15 6 -15 13 0 7
-3 8 -8 2 -4 -5 -16 -12 -26 -13 -18 -3 -19 -2 -5 15 13 17 13 17 -4 4 -14
-11 -15 -16 -5 -29 11 -13 10 -14 -7 -5 -28 13 -48 11 -52 -7 -3 -11 -2 -12 4
-3 6 9 12 6 22 -10 13 -19 12 -21 -1 -10 -8 7 -18 10 -22 6 -4 -4 -11 -1 -16
7 -6 8 -10 10 -10 4 0 -7 -7 -15 -16 -18 -8 -3 -13 -2 -10 2 3 5 -1 9 -9 9
-13 0 -12 -5 2 -26 16 -25 16 -25 -1 -12 -15 13 -19 13 -27 0 -5 -8 -9 -9 -9
-4 0 6 -10 11 -22 12 -22 2 -22 1 -4 -13 11 -8 15 -14 9 -14 -7 0 -19 7 -27
16 -9 8 -16 11 -16 5 0 -15 -43 -14 -59 2 -11 10 -13 9 -7 -1 5 -7 -2 -16 -19
-22 -34 -13 -38 -13 -29 3 3 6 -5 -1 -18 -17 -24 -28 -25 -29 -37 -10 -12 18
-12 18 -7 0 5 -14 2 -17 -11 -12 -14 6 -14 4 3 -16 19 -23 19 -23 -1 -8 -11 8
-24 20 -28 25 -5 6 -6 0 -2 -11 6 -24 -14 -38 -42 -27 -12 5 -14 3 -8 -7 6
-10 3 -12 -13 -8 -15 4 -19 2 -15 -8 3 -8 10 -11 16 -7 6 3 7 1 3 -6 -6 -9
-11 -9 -24 1 -13 11 -14 11 -7 -1 6 -11 4 -13 -10 -7 -14 5 -16 4 -6 -8 9 -11
8 -15 -4 -20 -9 -3 -14 -2 -11 3 3 5 -1 11 -9 14 -10 4 -12 1 -8 -10 5 -13 2
-15 -11 -10 -11 4 -15 3 -11 -4 4 -6 -2 -13 -14 -16 -11 -3 -19 -9 -16 -13 3
-5 -6 -7 -20 -5 -26 2 -34 -10 -12 -18 7 -4 6 -6 -5 -6 -9 -1 -18 -4 -21 -8
-2 -5 -2 -2 0 6 2 8 -2 11 -11 8 -7 -3 -20 0 -27 6 -7 7 -5 2 6 -11 15 -18 16
-22 3 -17 -9 4 -19 1 -23 -4 -3 -6 -11 -8 -17 -5 -7 4 -8 2 -4 -5 6 -9 11 -9
21 -1 10 8 15 8 21 -1 4 -7 3 -9 -4 -5 -6 3 -13 2 -17 -4 -4 -6 -11 -8 -16 -5
-5 4 -9 1 -9 -4 0 -6 -5 -11 -11 -11 -5 0 -7 6 -3 13 5 8 2 8 -9 -2 -9 -7 -17
-20 -17 -28 0 -8 -5 -11 -10 -8 -6 4 -7 12 -4 18 4 7 3 8 -2 4 -12 -12 -12
-30 1 -39 6 -5 5 -8 -3 -8 -7 0 -15 7 -19 16 -16 43 -23 -31 -23 -263 l0 -253
1840 0 1840 0 0 165 c0 109 -4 165 -11 165 -5 0 -8 4 -5 9 3 5 -4 11 -16 14
-19 5 -20 8 -7 23 12 16 12 17 -3 11 -10 -3 -20 -1 -24 5 -5 7 -2 8 6 3 8 -5
11 -3 8 6 -3 8 -11 14 -19 14 -8 0 -13 7 -12 15 2 8 -18 33 -43 55 -24 22 -70
64 -100 93 -31 28 -60 52 -65 52 -5 0 -9 6 -9 13 0 8 -4 7 -10 -3 -5 -8 -10
-10 -10 -4 0 10 -33 25 -65 29 -5 0 -9 6 -7 13 1 7 -7 12 -18 12 -11 0 -20 5
-20 11 0 5 -4 7 -10 4 -5 -3 -20 1 -32 9 -12 9 -33 16 -46 16 -13 0 -20 4 -17
10 3 5 -3 10 -14 10 -12 0 -21 5 -21 12 0 9 -3 9 -11 1 -13 -13 -44 2 -90 44
-21 20 -26 32 -24 68 1 36 -1 42 -12 33 -7 -6 -16 -8 -20 -5 -3 4 -14 2 -24
-4 -13 -6 -19 -6 -19 1 0 5 -5 10 -11 10 -5 0 -7 -6 -3 -12 5 -9 3 -9 -9 1 -9
7 -26 11 -38 8 -15 -4 -19 -2 -15 9 4 10 2 13 -7 7 -19 -12 -37 -12 -37 -1 0
6 -7 4 -17 -3 -9 -8 -14 -9 -10 -3 4 8 -19 11 -81 11 -48 0 -127 3 -177 8 -49
4 -108 9 -130 10 -22 2 -45 3 -51 4 -19 2 -24 39 -5 46 9 3 17 5 17 3 1 -2 10
4 20 13 21 17 55 33 66 31 4 -1 11 16 14 38 4 22 10 37 15 34 5 -3 9 0 9 6 0
6 5 8 12 4 7 -5 8 -3 3 5 -7 13 11 60 28 72 5 4 10 18 10 32 1 14 6 23 11 19
5 -3 7 2 3 11 -3 10 -2 17 3 17 5 0 7 6 4 14 -3 8 0 17 5 21 6 3 9 11 6 16 -4
5 -1 9 5 9 6 0 8 5 5 10 -3 6 -1 10 4 10 6 0 11 9 11 19 0 11 5 23 10 26 6 4
8 10 5 15 -3 5 -1 11 5 15 6 4 8 11 5 16 -4 5 0 9 7 9 9 0 9 3 -2 10 -8 5 -10
10 -5 10 6 0 11 10 12 22 1 11 8 25 15 30 10 6 10 10 -2 18 -11 7 -11 10 -2
10 7 0 10 4 7 10 -3 5 -1 10 4 10 6 0 10 6 9 13 -2 6 2 11 8 10 7 -1 9 8 6 22
-2 15 0 25 7 25 7 0 9 5 6 10 -3 6 0 10 7 10 9 0 9 3 -2 10 -10 6 -11 10 -2
10 6 0 12 7 12 15 0 8 6 15 13 15 8 0 7 4 -3 10 -12 8 -12 10 -1 10 8 0 11 7
8 20 -3 11 0 20 6 20 8 0 8 3 2 8 -15 10 -18 35 -4 26 9 -5 10 -1 7 14 -4 12
-2 22 4 22 5 0 6 5 3 10 -4 6 -2 17 5 25 8 9 8 15 0 20 -7 4 -7 11 -2 18 5 7
10 30 11 51 1 22 5 44 9 50 4 6 7 14 8 19 1 4 2 8 4 10 1 1 3 10 5 20 3 14 -1
17 -13 13 -16 -6 -16 -5 0 7 10 8 13 18 9 26 -5 7 -6 22 -4 32 3 11 0 25 -6
33 -8 10 -9 16 -1 21 7 4 7 12 0 26 -6 10 -8 19 -4 19 3 0 0 8 -7 17 -10 11
-10 14 -1 9 8 -5 12 -1 12 13 0 10 -6 22 -12 24 -10 4 -10 6 -1 6 7 1 10 8 6
18 -4 9 -2 14 3 11 12 -8 12 55 -1 64 -6 5 -6 8 1 8 7 0 12 21 13 53 0 28 3
62 5 75 3 13 0 22 -7 23 -7 0 -3 4 8 9 13 6 15 9 5 9 -13 1 -13 2 0 11 8 5 10
10 5 10 -9 0 -15 21 -18 68 0 7 -7 10 -16 7 -12 -5 -13 -3 -5 5 17 17 5 63
-15 55 -12 -5 -13 -3 -4 6 8 8 9 19 3 35 -6 16 -6 24 1 24 6 0 8 4 4 10 -3 5
-6 25 -7 45 -1 19 -5 35 -10 35 -4 0 -8 5 -8 11 0 5 5 7 10 4 6 -3 10 -1 10 4
0 10 -14 15 -33 12 -5 -1 -6 3 -3 8 3 5 -1 11 -9 15 -8 3 -15 12 -15 21 0 8
-4 15 -9 15 -5 0 -12 9 -16 19 -4 13 -12 18 -23 15 -14 -5 -15 -4 -2 5 12 8
10 14 -15 36 -22 19 -25 24 -10 20 13 -4 10 0 -8 12 -15 10 -25 24 -22 31 3 7
0 10 -5 7 -5 -3 -17 3 -27 15 -10 11 -23 20 -30 20 -7 0 -13 5 -13 11 0 5 -4
8 -9 4 -5 -3 -12 -1 -16 5 -4 6 -11 8 -16 5 -5 -3 -6 1 -3 9 6 15 -28 40 -40
29 -3 -3 -6 -1 -6 6 0 8 6 11 16 7 14 -5 15 -4 4 9 -7 8 -16 13 -20 10 -5 -3
-16 2 -24 11 -12 11 -16 12 -16 2 0 -8 -3 -9 -8 -3 -13 18 -70 34 -76 21 -2
-6 -5 -3 -5 7 -1 19 -31 24 -32 5 0 -7 -5 -2 -10 11 -9 23 -10 24 -24 5 -13
-16 -14 -16 -9 -1 6 16 0 19 -31 17 -3 -1 -13 6 -21 15 -9 8 -24 15 -34 15
-10 0 -21 4 -25 9 -3 6 -13 9 -23 9 -9 0 -26 3 -36 7 -15 7 -17 5 -11 -6 7
-11 6 -12 -6 -3 -8 6 -24 10 -36 8 -13 -2 -23 1 -23 7 0 8 -4 8 -13 0 -8 -6
-17 -7 -21 -3 -11 10 -30 9 -38 -3 -5 -6 -8 -6 -8 2 0 12 -56 15 -75 4 -18
-10 -40 -6 -47 9 -4 8 -7 10 -7 4z m-241 -84 c0 -5 -5 -10 -11 -10 -5 0 -7 5
-4 10 3 6 8 10 11 10 2 0 4 -4 4 -10z m-440 -914 c0 -2 -7 -7 -16 -10 -8 -3
-12 -2 -9 4 6 10 25 14 25 6z m40 -112 c0 -8 -19 -13 -24 -6 -3 5 1 9 9 9 8 0
15 -2 15 -3z m-73 -189 c0 -8 -4 -12 -9 -9 -5 3 -6 10 -3 15 9 13 12 11 12 -6z
m208 -447 c5 4 5 1 1 -6 -6 -10 -11 -10 -22 -1 -8 6 -14 14 -14 16 0 3 6 0 13
-6 8 -6 18 -7 22 -3z m25 -68 c0 -5 -5 -10 -11 -10 -5 0 -7 5 -4 10 3 6 8 10
11 10 2 0 4 -4 4 -10z m104 -318 c3 -5 -1 -9 -9 -9 -8 0 -12 4 -9 9 3 4 7 8 9
8 2 0 6 -4 9 -8z m-290 -377 c-7 -16 -24 -21 -24 -6 0 8 7 13 27 20 1 1 0 -6
-3 -14z m-150 -6 c3 -3 -4 -5 -14 -6 -11 -1 -20 2 -20 7 0 8 25 8 34 -1z
m-309 -79 c4 -6 1 -9 -7 -8 -7 2 -12 -2 -11 -9 2 -7 -4 -10 -12 -6 -13 5 -13
7 2 19 22 16 20 16 28 4z m28 -15 c-3 -9 -8 -14 -10 -11 -3 3 -2 9 2 15 9 16
15 13 8 -4z m-538 -265 c3 -5 1 -10 -4 -10 -6 0 -11 5 -11 10 0 6 2 10 4 10 3
0 8 -4 11 -10z"/>
<path d="M1075 941 c-3 -5 -2 -12 3 -15 5 -3 9 1 9 9 0 17 -3 19 -12 6z"/>
<path d="M483 805 c0 -8 4 -12 9 -9 5 3 6 10 3 15 -9 13 -12 11 -12 -6z"/>
</g>
</svg>
